<?xml version="1.0" encoding="UTF-8"?>
<svg width="56px" height="56px" viewBox="0 0 56 56" version="1.1" xmlns="http://www.w3.org/2000/svg" xmlns:xlink="http://www.w3.org/1999/xlink">
    <!-- Generator: Sketch 46.1 (44463) - http://www.bohemiancoding.com/sketch -->
    <title>新增用户</title>
    <desc>Created with Sketch.</desc>
    <defs>
        <linearGradient x1="166.561159%" y1="128.818361%" x2="22.7152729%" y2="20.6238388%" id="linearGradient-1">
            <stop stop-color="#EA0B76" offset="0%"></stop>
            <stop stop-color="#F2AD99" offset="100%"></stop>
        </linearGradient>
    </defs>
    <g id="Symbols" stroke="none" stroke-width="1" fill="none" fill-rule="evenodd">
        <g id="新增用户">
            <g id="用户-当前" transform="translate(13.000000, 8.000000)">
                <path d="M15.0391822,0 C23.0931482,0 29.6226345,6.52940641 29.6226345,14.5833723 C29.6226345,19.864845 26.8148435,24.4903709 22.610812,27.0493187 C27.0546124,29.6532382 30.039292,34.4777987 30.039292,39.9999996 L0.0390324609,39.9999996 C0.0390324609,34.4777987 3.02371207,29.6532382 7.46751246,27.0493187 C3.26348105,24.4903709 0.455689961,19.864845 0.455689961,14.5833724 C0.455729961,6.52936645 6.98517633,0 15.0391822,0 L15.0391822,0 Z" id="Combined-Shape" fill="url(#linearGradient-1)" fill-rule="nonzero"></path>
                <path d="M22.440999,14.4561325 L20.0611049,14.4561325 C20.0611049,15.4636347 19.2491629,16.6815476 18.5864955,17.3319382 C17.5238904,18.3748572 16.4032738,18.7779018 15.0391823,18.7779018 C13.6750907,18.7779018 12.3414249,18.2675781 11.530506,17.4587054 C10.6683818,16.5987565 10.0957961,15.4605655 10.0140439,14.4561325 L7.63736551,14.4561325 C7.82944449,16.1795667 8.60971293,17.7261523 9.7727802,18.8890197 C11.1204511,20.2369305 12.9827979,21.0708052 15.0391423,21.0708052 C17.0956467,21.0708052 18.9578335,20.2369705 20.3054245,18.8890197 C21.4686516,17.7261523 22.2488801,16.1795667 22.440999,14.4561325 Z" id="Path" fill="#FFFFFF"></path>
            </g>
        </g>
    </g>
</svg>