<?xml version="1.0" encoding="UTF-8"?>
<svg width="30px" height="30px" viewBox="0 0 30 30" version="1.1" xmlns="http://www.w3.org/2000/svg" xmlns:xlink="http://www.w3.org/1999/xlink">
    <!-- Generator: Sketch 46.1 (44463) - http://www.bohemiancoding.com/sketch -->
    <title>事件分析.sel</title>
    <desc>Created with Sketch.</desc>
    <defs></defs>
    <g id="Symbols" stroke="none" stroke-width="1" fill="none" fill-rule="evenodd">
        <g id="事件分析.sel" fill-rule="nonzero" fill="#7F85FB">
            <g id="图表类型-事件分析" transform="translate(1.933333, 1.000000)">
                <path d="M11.3554608,10.7929726 L13.9981243,26.4286969 C13.9981243,26.4286969 15.9801219,24.3625476 17.5767311,22.9665008 L21.1553379,27.8247437 C21.3205044,28.0481112 21.5957818,28.0481112 21.8710593,27.8805856 L23.412613,26.7637481 C23.6328349,26.5962225 23.7429459,26.2611713 23.5777794,26.0936457 L20.1092836,21.4029284 C21.9261148,20.676984 24.8991112,19.839356 24.8991112,19.839356 L11.3554608,10.7929726 Z M7.06113264,17.9965742 L3.09713742,20.9561934 C2.49152705,21.4029284 2.38141606,22.2405565 2.87691547,22.9106589 C3.37241489,23.5249195 4.19824721,23.6924452 4.80385758,23.2457102 L8.76785283,20.2860909 C9.3734632,19.839356 9.48357418,18.945886 8.98807477,18.3316254 C8.54763085,17.6615229 7.66674304,17.5498392 7.06113264,17.9965742 L7.06113264,17.9965742 Z M25.779999,5.93472967 C25.2844996,5.32046909 24.4586673,5.15294346 23.8530569,5.59967844 L19.9441171,8.50345581 C19.3385068,8.9501908 19.2283958,9.84366074 19.6688397,10.4579214 C20.1643391,11.0721819 20.9901714,11.2397076 21.6508373,10.7929726 L25.559777,7.88919522 C26.1653874,7.44246024 26.2204429,6.54899029 25.779999,5.93472967 L25.779999,5.93472967 Z M7.39146557,2.91926855 C6.95102166,2.24916609 6.07013384,2.13748234 5.46452347,2.58421732 C4.8589131,3.03095231 4.74880211,3.8685804 5.2443015,4.48284099 L8.32740891,8.55929769 C8.76785283,9.17355827 9.64874064,9.28524203 10.254351,8.89434892 C10.8599614,8.44761393 10.9700724,7.55414399 10.5296285,6.93988337 L7.39146557,2.91926855 Z M15.1542896,7.77751147 C15.9250664,7.88919522 16.6407878,7.38661836 16.6958433,6.60483214 L17.3014536,1.6349055 C17.4115646,0.908961159 16.9160652,0.183016817 16.1452884,0.0154911871 C15.3745115,-0.0961925662 14.6587902,0.406384296 14.6037347,1.18817051 L13.9430688,6.15809715 C13.8329578,6.93988337 14.3835127,7.60998584 15.1542896,7.77751147 L15.1542896,7.77751147 Z M7.72179851,13.3058568 C7.776854,12.5240706 7.28135459,11.8539682 6.51057776,11.6864426 L1.55558372,10.8488145 C0.784806864,10.7371307 0.0690855052,11.2397076 0.014030012,12.0214938 C-0.0960809746,12.80328 0.454473931,13.5292244 1.22525078,13.6409081 L6.18024483,14.4785362 C6.89596619,14.5902199 7.55663205,14.0876431 7.72179851,13.3058568 L7.72179851,13.3058568 Z" id="Shape"></path>
            </g>
        </g>
    </g>
</svg>