<?xml version="1.0" encoding="UTF-8"?>
<svg width="30px" height="30px" viewBox="0 0 30 30" version="1.1" xmlns="http://www.w3.org/2000/svg" xmlns:xlink="http://www.w3.org/1999/xlink">
    <!-- Generator: Sketch 46.1 (44463) - http://www.bohemiancoding.com/sketch -->
    <title>用户行为.sel</title>
    <desc>Created with Sketch.</desc>
    <defs></defs>
    <g id="Symbols" stroke="none" stroke-width="1" fill="none" fill-rule="evenodd">
        <g id="用户行为.sel" fill-rule="nonzero" fill="#7F85FB">
            <g id="用户访问" transform="translate(4.000000, 1.000000)">
                <path d="M18.976793,19.7999922 L11.1034483,28 L3.23010358,19.7999922 C1.21129229,17.6999922 2.13162821e-13,14.7999961 2.13162821e-13,11.6000117 C2.13162821e-13,5.19996094 4.94607799,0 11.1034483,0 C17.2608186,0 22.2068966,5.19998828 22.2068966,11.6000117 C22.2068966,14.7999961 20.9956043,17.6999922 18.976793,19.7999922 Z M10.9586559,3.19622802 C6.46020907,3.19622802 2.94924668,7.06975435 2.94924668,11.7179859 C2.94924668,14.0421017 3.82698728,16.2555194 5.253327,17.80493 L9.09346086,13.7100679 C8.21569027,13.0460305 7.66712114,11.9393217 7.66712114,10.7219147 C7.66712114,8.8405006 9.09346086,7.29109007 10.9586559,7.29109007 C12.8238509,7.29109007 14.2501906,8.8405006 14.2501906,10.7219147 C14.2501906,11.9393217 13.7016215,12.9353626 12.8238509,13.5994001 L16.6639848,17.6942621 C18.0903245,16.1448516 18.9680651,14.0421017 18.9680651,11.6072878 C18.9680651,6.95905623 15.3473889,3.19622802 10.9586559,3.19622802 L10.9586559,3.19622802 Z" id="Shape"></path>
            </g>
        </g>
    </g>
</svg>