<?xml version="1.0" encoding="UTF-8"?>
<svg width="30px" height="30px" viewBox="0 0 30 30" version="1.1" xmlns="http://www.w3.org/2000/svg" xmlns:xlink="http://www.w3.org/1999/xlink">
    <!-- Generator: Sketch 46.1 (44463) - http://www.bohemiancoding.com/sketch -->
    <title>数据概括.nor</title>
    <desc>Created with Sketch.</desc>
    <defs></defs>
    <g id="Symbols" stroke="none" stroke-width="1" fill="none" fill-rule="evenodd">
        <g id="数据概括.nor" fill-rule="nonzero" fill="#BFBFDC">
            <path d="M2,18.6114991 C2,17.7214162 2.784,17 3.76799999,17 L6.23199998,17 C7.20999998,17 8,17.7214162 8,18.6114991 L8,26.3884944 C8,27.2785772 7.21599997,27.9999935 6.23199998,27.9999935 L3.76799999,27.9999935 C3.30042275,28.0012108 2.85146893,27.8321118 2.51990421,27.5298967 C2.18833948,27.2276817 2.0013242,26.8171067 2,26.3884944 L2,18.6114991 Z M22,10.6701143 C22,9.74671593 22.784,9.00001731 23.768,9.00001731 L26.232,9.00001731 C26.6996462,8.99799727 27.1489114,9.17287017 27.4806209,9.48603298 C27.8123303,9.7991958 27.9992077,10.2248973 28,10.6691643 L28,26.3308357 C28,27.2523341 27.216,27.9999827 26.232,27.9999827 L23.768,27.9999827 C23.3003538,28.0020027 22.8510886,27.8271298 22.5193791,27.513967 C22.1876697,27.2008042 22.0007923,26.7751027 22,26.3308357 L22,10.6691643 L22,10.6701143 Z M12,3.62592619 C12,2.72799893 12.784,2 13.768,2 L16.232,2 C17.21,2 18,2.72242752 18,3.62685475 L18,26.3731071 C18,27.2719629 17.216,27.9999618 16.232,27.9999618 L13.768,27.9999618 C13.3008966,28.0029271 12.8517704,27.8329553 12.5199728,27.5276462 C12.1881752,27.2223371 12.0010531,26.8068543 12,26.3731071 L12,3.62685475 L12,3.62592619 Z" id="Shape"></path>
        </g>
    </g>
</svg>