<?xml version="1.0" encoding="UTF-8"?>
<svg width="30px" height="30px" viewBox="0 0 30 30" version="1.1" xmlns="http://www.w3.org/2000/svg" xmlns:xlink="http://www.w3.org/1999/xlink">
    <!-- Generator: Sketch 46.1 (44463) - http://www.bohemiancoding.com/sketch -->
    <title>分析.sel</title>
    <desc>Created with Sketch.</desc>
    <defs></defs>
    <g id="Symbols" stroke="none" stroke-width="1" fill="none" fill-rule="evenodd">
        <g id="分析.sel" stroke="#7F85FB" stroke-width="0.6" fill="#7F85FB" fill-rule="nonzero">
            <g id="分析" transform="translate(0.500000, 2.000000)">
                <path d="M26.6484814,11.6320203 C26.3318029,11.6320203 26.0189398,11.7043528 25.7327845,11.8414038 L15.1564858,3.03206928 C15.4159333,2.53716285 15.4693489,1.96231001 15.2976558,1.42933382 C14.9619003,0.35576757 13.8172792,-0.241927125 12.7413354,0.0930864534 C12.73752,0.0968934284 12.7298892,0.0968934284 12.7260738,0.0968934284 C11.7912999,0.409065188 11.2037277,1.33415951 11.3258207,2.31255145 L4.67938764,4.47871883 C4.18338517,3.69828946 3.22190346,3.35566194 2.34054524,3.64118487 C1.26460144,3.9990403 0.673213888,5.16016691 1.02423102,6.24134715 C1.23789363,6.9113743 1.77968094,7.42912259 2.46263817,7.60805028 L1.8636198,20.6545452 C0.665583076,20.8334729 -0.154728678,21.9451089 0.0245952776,23.1404983 C0.203919234,24.3358877 1.31801709,25.1543868 2.51605382,24.9754591 C3.55002819,24.8193732 4.33218591,23.9513835 4.37797075,22.908273 L14.3590665,20.822052 C14.656668,21.3930979 15.2480555,21.7547603 15.8928587,21.7623742 C16.8657866,21.7547603 17.6479444,20.96291 17.6364982,19.992132 C17.6364982,19.8665019 17.6212365,19.7370648 17.5907133,19.6152417 L24.9849654,15.2219954 C25.3932136,15.7207088 26.0074936,16.0138457 26.6522968,16.0138457 C27.8655951,16.0138457 28.8461539,15.0316468 28.8461538,13.8210295 C28.8461538,12.6104122 27.8617797,11.6282133 26.6484814,11.6320203 Z M13.0160444,12.9530398 C12.9664442,11.8566317 12.3025639,10.8858537 11.3029282,10.4366309 L13.1991838,4.12086343 C13.7333403,4.15893315 14.259866,3.98381243 14.6642988,3.63737793 L25.0841659,12.3058544 C24.8094569,12.5951843 24.6186867,12.9530398 24.5347478,13.337544 L13.0160444,12.9530398 Z M3.28294992,20.9058054 C3.08073353,20.7877893 2.86325552,20.7040359 2.63433131,20.6583522 L3.22953427,7.65754093 C3.54239737,7.61947121 3.83999885,7.50526202 4.0994463,7.32633432 L7.83091098,11.3769531 C7.01823,12.4847822 7.09072269,14.0113781 7.99878875,15.0354538 L3.28294992,20.9058054 Z M12.4551801,3.92670784 L10.5589245,10.2310544 C9.77676681,10.1054243 8.97934746,10.3224217 8.36888288,10.8211351 L4.64504902,6.78193725 C4.95791212,6.32129356 5.07618961,5.75405466 4.9655429,5.20585061 L11.5509295,3.05871808 C11.7531459,3.43560835 12.0698244,3.73635918 12.4551801,3.92670784 Z M4.27113945,22.1278436 C4.18720058,21.8613555 4.04984603,21.6177093 3.87052207,21.4007119 L8.58254549,15.5417811 C9.48298074,16.1356688 10.6466788,16.1623176 11.5776373,15.6141136 L14.4735286,18.9642494 C14.259866,19.2650002 14.1454039,19.6228557 14.1454039,19.988325 C14.1454039,20.0149738 14.1454039,20.0378157 14.1530347,20.0606575 L4.27113945,22.1278436 Z M17.2587732,18.8957239 C16.9344639,18.469343 16.4270153,18.2218898 15.8890433,18.2180828 C15.5952572,18.2218898 15.3052866,18.2980292 15.0534699,18.4426942 L12.1919173,15.134435 C12.5696422,14.7461238 12.8367205,14.2550244 12.9511826,13.7258552 L24.5042246,14.1141664 C24.5233016,14.2550244 24.5576402,14.3958823 24.6034251,14.5329334 L17.2587732,18.8957239 L17.2587732,18.8957239 Z" id="Shape"></path>
            </g>
        </g>
    </g>
</svg>