<?xml version="1.0" encoding="UTF-8"?>
<svg width="30px" height="30px" viewBox="0 0 30 30" version="1.1" xmlns="http://www.w3.org/2000/svg" xmlns:xlink="http://www.w3.org/1999/xlink">
    <!-- Generator: Sketch 46.1 (44463) - http://www.bohemiancoding.com/sketch -->
    <title>用户.sel</title>
    <desc>Created with Sketch.</desc>
    <defs></defs>
    <g id="Symbols" stroke="none" stroke-width="1" fill="none" fill-rule="evenodd">
        <g id="用户.sel" fill-rule="nonzero" fill="#7F85FB">
            <g id="用户" transform="translate(4.000000, 2.000000)">
                <path d="M11.2191419,0 C14.9386139,0 17.9445545,2.90877797 17.9445545,6.5037292 C17.9445545,10.0986804 14.9386139,13.0074584 11.2191419,13.0074584 C7.49966997,13.0074584 4.49372937,10.0986804 4.49372937,6.5037292 C4.49372937,2.90877797 7.51485149,8.28049301e-16 11.2191419,0 Z M11.2191419,0 C14.9386139,0 17.9445545,2.90877797 17.9445545,6.5037292 C17.9445545,10.0986804 14.9386139,13.0074584 11.2191419,13.0074584 C7.49966997,13.0074584 4.49372937,10.0986804 4.49372937,6.5037292 C4.49372937,2.90877797 7.51485149,8.28049301e-16 11.2191419,0 Z M8.6990099,15.1703959 L14.3009901,15.1703959 C19.0983498,15.1703959 23,18.929432 23,23.56856 L23,24.1055651 C23,25.9403328 19.1135314,26 14.3009901,26 L8.6990099,26 C3.90165017,26 0,26 0,24.1055651 L0,23.56856 C0.0151815182,18.929432 3.90165017,15.1703959 8.6990099,15.1703959 Z" id="Shape"></path>
            </g>
        </g>
    </g>
</svg>