<?xml version="1.0" encoding="UTF-8"?>
<svg width="30px" height="30px" viewBox="0 0 30 30" version="1.1" xmlns="http://www.w3.org/2000/svg" xmlns:xlink="http://www.w3.org/1999/xlink">
    <!-- Generator: Sketch 46.1 (44463) - http://www.bohemiancoding.com/sketch -->
    <title>用户.nor</title>
    <desc>Created with Sketch.</desc>
    <defs></defs>
    <g id="Symbols" stroke="none" stroke-width="1" fill="none" fill-rule="evenodd">
        <g id="用户.nor" fill-rule="nonzero" fill="#BFBFDC">
            <g id="用户" transform="translate(4.000000, 2.000000)">
                <path d="M11.0302819,0.0156058231 C14.6784251,0.0156058231 17.6267204,2.92248152 17.6267204,6.51508175 C17.6267204,10.107682 14.6784251,13.0145577 11.0302819,13.0145577 C7.3821387,13.0145577 4.4338434,10.107682 4.4338434,6.51508175 C4.4338434,2.92248152 7.39702908,0.0156058231 11.0302819,0.0156058231 Z M11.0302819,0.0156058231 C14.6784251,0.0156058231 17.6267204,2.92248152 17.6267204,6.51508175 C17.6267204,10.107682 14.6784251,13.0145577 11.0302819,13.0145577 C7.3821387,13.0145577 4.4338434,10.107682 4.4338434,6.51508175 C4.4338434,2.92248152 7.39702908,0.0156058231 11.0302819,0.0156058231 Z M8.55847875,15.1760806 L14.0530291,15.1760806 C18.7583893,15.1760806 22.585217,18.9326585 22.585217,23.5687525 L22.585217,24.1054065 C22.585217,25.9389742 18.7732796,25.9986025 14.0530291,25.9986025 L8.55847875,25.9986025 C3.85311857,25.9986025 0.0262908277,25.9986025 0.0262908277,24.1054065 L0.0262908277,23.5687525 C0.0411812081,18.9326585 3.85311857,15.1760806 8.55847875,15.1760806 Z" id="Shape"></path>
            </g>
        </g>
    </g>
</svg>