<?xml version="1.0" encoding="UTF-8"?>
<svg width="56px" height="56px" viewBox="0 0 56 56" version="1.1" xmlns="http://www.w3.org/2000/svg" xmlns:xlink="http://www.w3.org/1999/xlink">
    <!-- Generator: Sketch 46.1 (44463) - http://www.bohemiancoding.com/sketch -->
    <title>访问人数</title>
    <desc>Created with Sketch.</desc>
    <defs>
        <linearGradient x1="88.1251741%" y1="78.1252953%" x2="20.6384314%" y2="27.3107408%" id="linearGradient-1">
            <stop stop-color="#77C9C5" offset="0%"></stop>
            <stop stop-color="#A1E27C" offset="97.6921237%"></stop>
        </linearGradient>
    </defs>
    <g id="Symbols" stroke="none" stroke-width="1" fill="none" fill-rule="evenodd">
        <g id="访问人数" fill-rule="nonzero" fill="url(#linearGradient-1)">
            <g id="人数" transform="translate(0.000000, 8.000000)">
                <path d="M18.7682484,8.28659785 C18.7682484,12.8585139 22.4688862,16.5629905 27.0360645,16.5629906 C31.6032428,16.5629906 35.3038805,12.858514 35.3038806,8.28659785 L35.3038806,8.27639271 C35.3038806,3.70447667 31.6032428,5.6497175e-08 27.0360645,0 C22.4688862,0.0102051977 18.7682484,3.71468181 18.7682484,8.28659785 Z M26.4039996,39.9430345 C33.0406806,39.9430345 38.58654,38.5245159 42.3789291,36.3304044 C42.4197075,35.7997355 42.4502913,37.3815368 42.4502913,36.850868 C42.4502913,27.0743154 35.8339994,19.1448985 27.2297618,19.1448985 C18.6255241,19.1448985 12.0092323,27.0743154 12.0092322,36.850868 C12.0092322,37.6876919 12.0602052,36.4018406 12.1621512,37.208049 C15.8933728,38.9021072 20.7052213,39.9430345 26.4039996,39.9430345 Z M41.7366697,13.0932328 C41.7366697,15.5832942 43.7551994,17.5937127 46.2324858,17.5937127 C48.7199669,17.5937127 50.728302,15.5730891 50.728302,13.0932328 C50.728302,10.6031714 48.7097723,8.59275294 46.2324858,8.59275294 C43.7551994,8.59275294 41.7366697,10.6133766 41.7366697,13.0932328 Z M46.3344318,19.0122313 C43.9183129,19.0122313 41.7366697,20.1654155 40.1870913,22.002346 C42.7765183,23.7678404 44.3057075,27.2784188 44.744075,31.4523332 C44.9989399,31.4625384 45.2639994,31.4625384 45.5290588,31.4625384 C49.1379453,31.4625384 52.3492425,30.6971506 54.4085506,29.5031458 C54.4289397,29.2174011 54.4493289,28.9214511 54.4493289,28.6357064 C54.4595236,23.3290181 51.0137506,19.0122313 46.3344318,19.0122313 L46.3344318,19.0122313 Z M3.7108324,13.0932328 C3.7108324,15.5832942 5.7293621,17.5937127 8.20664852,17.5937127 C10.6941296,17.5937127 12.7024647,15.5730891 12.7024647,13.0932328 C12.7024647,10.6031714 10.683935,8.59275294 8.20664852,8.59275294 C5.72936205,8.59275294 3.71083234,10.6133766 3.7108324,13.0932328 Z M8.1148972,19.0122313 C10.5310161,19.0122313 12.7126593,20.1654155 14.2622376,22.002346 C11.6728107,23.7678404 10.1436215,27.2784188 9.70525389,31.4523332 C9.45038901,31.4625384 9.18532956,31.4625384 8.92027011,31.4625384 C5.31138366,31.4625384 2.1000864,30.6971506 0.0407783767,29.5031458 C0.0203891884,29.2174011 0,28.9214511 0,28.6357064 C0,23.3290181 3.42538376,19.0122313 8.1148972,19.0122313 Z" id="Shape"></path>
            </g>
        </g>
    </g>
</svg>