<?xml version="1.0" encoding="UTF-8"?>
<svg width="56px" height="56px" viewBox="0 0 56 56" version="1.1" xmlns="http://www.w3.org/2000/svg" xmlns:xlink="http://www.w3.org/1999/xlink">
    <!-- Generator: Sketch 46.1 (44463) - http://www.bohemiancoding.com/sketch -->
    <title>访问次数</title>
    <desc>Created with Sketch.</desc>
    <defs>
        <linearGradient x1="27.3050663%" y1="0%" x2="100%" y2="119.464221%" id="linearGradient-1">
            <stop stop-color="#FAD961" offset="0%"></stop>
            <stop stop-color="#F76B1C" offset="100%"></stop>
        </linearGradient>
        <linearGradient x1="-37.2380124%" y1="0%" x2="164.444912%" y2="136.334907%" id="linearGradient-2">
            <stop stop-color="#FAD961" offset="0%"></stop>
            <stop stop-color="#F76B1C" offset="100%"></stop>
        </linearGradient>
    </defs>
    <g id="Symbols" stroke="none" stroke-width="1" fill="none" fill-rule="evenodd">
        <g id="访问次数" fill-rule="nonzero">
            <g id="眼睛" transform="translate(5.000000, 8.000000)">
                <path d="M22.8723161,0.00129656051 C5.51761651,0.00129656051 0.0120988025,19.9890086 0.0120988025,19.9890086 C0.0120988025,19.9890086 5.2782802,39.976877 22.8723161,39.976877 C38.5512963,39.976877 45.7325334,19.9890086 45.7325334,19.9890086 C45.7325334,19.9890086 41.4237494,0.00129656051 22.8723161,0.00129656051 Z M22.8722639,34.2490216 C14.9968472,34.2490216 8.61240729,27.8646338 8.61240729,19.9890086 C8.61240729,12.1135919 14.9967951,5.72915195 22.8722639,5.72915195 C30.7478891,5.72915195 37.1322769,12.1135398 37.1322769,19.9890086 C37.1323291,27.8646338 30.7478891,34.2490216 22.8722639,34.2490216 Z" id="Shape" fill="url(#linearGradient-1)"></path>
                <path d="M30.7716663,19.9891129 C30.7716663,24.3518126 27.2350158,27.8884631 22.8723161,27.8884631 C18.5096163,27.8884631 14.9729658,24.3518126 14.9729658,19.9891129 C14.9729658,15.6264131 18.5096163,12.0897626 22.8723161,12.0897626 C22.8723161,12.0897626 24.3980722,17.2659452 23.9791554,18.6423637 C27.689442,17.74467 30.6925654,19.656232 30.7716663,19.9891129 Z" id="Shape" fill="url(#linearGradient-2)"></path>
            </g>
        </g>
    </g>
</svg>